<?xml version="1.0"?>
<svg xmlns="http://www.w3.org/2000/svg" id="OutLine" viewBox="0 0 512 512" width="512" height="512"><circle cx="280" cy="152" r="8"/><path d="M440,158.757V112a8,8,0,0,0-8.964-7.941C429.723,104.218,299.194,120,256,120S82.277,104.218,80.964,104.059A8,8,0,0,0,72,112v46.757L16.376,333.574A8,8,0,0,0,22.708,343.9c67.514,11.046,139.586,32.408,214.216,63.49a7.993,7.993,0,0,0,10.231-3.807L256,385.889l8.845,17.689a8,8,0,0,0,9.427,4.092l216-64a8,8,0,0,0,5.352-10.1Zm-56,14.8c18.561-2.03,34.013-3.834,42.382-4.827L449.059,240H440a56.063,56.063,0,0,1-56-56Zm40-20.66c-26.065,3.076-117.7,13.617-160,14.962V135.865c42.372-1.288,131.3-11.466,160-14.853ZM264,184h16v40a24.042,24.042,0,0,1-16,22.629ZM88,121.012c28.7,3.387,117.628,13.565,160,14.853v31.993c-42.3-1.345-133.935-11.886-160-14.962Zm-2.382,47.717c8.369.993,23.821,2.8,42.382,4.827V184a56.063,56.063,0,0,1-56,56H62.941ZM236.173,389.765C166.189,361.112,98.4,340.916,34.414,329.654L57.85,256H72a72.081,72.081,0,0,0,72-72v-8.723c36,3.8,78.454,7.811,104,8.586V366.111Zm39.984.66L264,366.111V263.2A40.067,40.067,0,0,0,296,224V182.012c22.452-1.7,48.591-4.261,72-6.735V184a72.081,72.081,0,0,0,72,72h14.15L477.9,330.648Z"/></svg>
