<?xml version="1.0"?>
<svg xmlns="http://www.w3.org/2000/svg" id="OutLine" viewBox="0 0 512 512" width="512" height="512"><path d="M352,104c0-33.912-2.621-59.962-8.249-81.981A8,8,0,0,0,336,16H176a8,8,0,0,0-7.751,6.019C162.621,44.038,160,70.088,160,104c0,45.663,8.569,89.23,24.153,122.892L199.914,407.36l-15.675,62.7A7.977,7.977,0,0,0,184,472a24.028,24.028,0,0,0,24,24h8a32.036,32.036,0,0,0,32-32V144a8,8,0,0,1,16,0V464a32.036,32.036,0,0,0,32,32h8a24.028,24.028,0,0,0,24-24,7.977,7.977,0,0,0-.239-1.94l-15.675-62.7,15.761-180.468C343.431,193.23,352,149.663,352,104ZM312.03,224.09l-16,183.214a7.985,7.985,0,0,0,.209,2.636l15.719,62.878A8.011,8.011,0,0,1,304,480h-8a16.019,16.019,0,0,1-16-16V144a23.939,23.939,0,0,0-8.081-17.939L292.8,110.4a8,8,0,0,0-9.6-12.8L256,118,228.8,97.6a8,8,0,1,0-9.6,12.8l20.881,15.661A23.939,23.939,0,0,0,232,144V464a16.019,16.019,0,0,1-16,16h-8a8.011,8.011,0,0,1-7.958-7.182l15.719-62.878a7.985,7.985,0,0,0,.209-2.636l-16-183.214a7.976,7.976,0,0,0-.736-2.719C184.252,189.627,176,147.943,176,104c0-29.442,2.017-52.544,6.318-72H329.682c4.3,19.456,6.318,42.558,6.318,72,0,43.943-8.252,85.627-23.234,117.371A7.976,7.976,0,0,0,312.03,224.09Z"/></svg>
